<svg version="1.0" xmlns="http://www.w3.org/2000/svg"
 width="128.000000pt" height="128.000000pt" viewBox="0 0 128.000000 128.000000"
 preserveAspectRatio="xMidYMid meet">

<g transform="translate(0.000000,128.000000) scale(0.100000,-0.100000)"
fill="#000000" stroke="none">
<path d="M69 1211 l-39 -39 0 -473 c0 -449 1 -476 19 -505 33 -55 80 -65 281
-62 l175 3 0 25 0 25 -192 3 -192 2 -20 27 c-21 25 -21 37 -21 480 l0 454 25
24 24 25 349 0 c329 0 351 -1 373 -19 23 -18 24 -27 29 -158 5 -130 6 -138 25
-138 19 0 20 8 23 143 l3 144 -40 39 -39 39 -372 0 -372 0 -39 -39z"/>
<path d="M212 1067 c-39 -42 -26 -105 27 -127 61 -25 126 40 101 101 -23 54
-90 67 -128 26z m76 -55 c3 -16 -2 -22 -17 -22 -24 0 -35 15 -27 36 9 23 40
13 44 -14z"/>
<path d="M404 1026 c-12 -32 7 -36 187 -36 l180 0 -3 23 c-3 22 -5 22 -181 25
-149 2 -178 0 -183 -12z"/>
<path d="M216 859 c-20 -16 -26 -29 -26 -59 0 -44 35 -80 77 -80 30 0 83 51
83 80 0 29 -53 80 -83 80 -13 0 -36 -9 -51 -21z m74 -59 c0 -24 -25 -33 -40
-14 -10 11 -10 17 0 28 15 19 40 10 40 -14z"/>
<path d="M410 815 c-10 -12 -10 -18 0 -30 10 -12 37 -15 125 -15 88 0 115 3
125 15 10 12 10 18 0 30 -10 12 -37 15 -125 15 -88 0 -115 -3 -125 -15z"/>
<path d="M875 819 c-31 -18 -45 -40 -45 -74 0 -26 -8 -36 -52 -65 -38 -26 -60
-50 -80 -89 -26 -49 -28 -62 -28 -165 0 -118 -6 -136 -46 -136 -28 0 -64 -44
-64 -77 0 -14 13 -37 29 -54 28 -27 34 -29 109 -29 l80 0 12 -31 c38 -91 188
-90 235 1 15 29 18 30 86 30 73 0 122 17 133 45 20 54 -9 105 -66 119 l-28 6
0 98 c0 58 -6 119 -15 148 -17 57 -71 126 -113 143 -24 10 -31 20 -35 53 -9
64 -65 103 -112 77z m57 -96 c3 -45 5 -48 60 -80 81 -48 98 -86 98 -230 0
-125 13 -155 73 -171 22 -6 32 -14 32 -28 0 -18 -11 -19 -284 -22 -217 -2
-286 1 -292 10 -10 16 9 38 33 38 10 0 30 11 43 25 24 23 25 31 25 137 1 155
29 213 123 253 35 14 37 18 37 58 0 48 5 57 31 57 14 0 19 -10 21 -47z m25
-618 c-15 -14 -39 -25 -52 -25 -13 0 -37 11 -52 25 l-28 24 80 0 80 0 -28 -24z"/>
<path d="M691 750 c-50 -36 -96 -106 -116 -174 -18 -61 -19 -100 -2 -114 20
-17 34 -1 42 48 12 76 48 143 104 191 82 70 59 111 -28 49z"/>
<path d="M1043 764 c-4 -12 3 -24 23 -38 74 -53 117 -120 130 -206 8 -52 20
-71 40 -63 21 8 18 83 -8 150 -15 41 -38 75 -79 115 -58 59 -94 73 -106 42z"/>
<path d="M235 659 c-31 -18 -45 -40 -45 -74 0 -55 59 -90 115 -69 23 9 46 60
39 88 -12 47 -70 76 -109 55z m55 -69 c0 -24 -26 -38 -42 -22 -16 16 -2 42 22
42 13 0 20 -7 20 -20z"/>
<path d="M403 594 c-10 -25 11 -35 68 -32 47 3 54 6 57 26 3 21 0 22 -58 22
-46 0 -62 -4 -67 -16z"/>
<path d="M212 427 c-39 -42 -26 -105 27 -127 61 -25 126 40 101 101 -23 54
-90 67 -128 26z m76 -55 c3 -16 -2 -22 -17 -22 -24 0 -35 15 -27 36 9 23 40
13 44 -14z"/>
<path d="M404 386 c-11 -30 7 -36 107 -36 98 0 100 0 97 23 -3 21 -8 22 -101
25 -79 2 -98 0 -103 -12z"/>
</g>
</svg>
